<svg
    width="26"
    height="42"
    viewBox="0 0 26 42"
    fill="none"
    xmlns="http://www.w3.org/2000/svg"
>
    <path
    d="M13 0C11.9925 1.113 11.375 2.562 11.375 4.158C11.44 7.665 11.8733 11.1615 11.9167 14.658C11.9925 17.9235 10.985 20.9895 9.76083 23.982C9.34917 24.8115 8.905 25.62 8.46083 26.4285L7.16083 26.1765C5.99083 25.9455 5.22167 24.843 5.46 23.709C5.66583 22.7115 6.565 22.0185 7.5725 22.0185L8.04917 22.071L6.9875 13.503C6.64083 9.6915 4.615 6.342 1.625 4.1685C1.11583 3.7905 0.563333 3.4545 0 3.15V33.5685H7.2475C7.78917 36.414 9.40333 38.9025 11.6783 40.6035C12.22 40.9605 12.675 41.4435 13 42C13.325 41.4435 13.78 40.971 14.3217 40.6035C16.5967 38.9025 18.2108 36.414 18.7525 33.5685H26V3.1395C25.4367 3.444 24.8842 3.78 24.375 4.158C21.385 6.3315 19.3592 9.681 19.0125 13.4925L17.9508 22.0605L18.4275 22.008C19.435 22.008 20.3342 22.701 20.54 23.6985C20.7783 24.8325 20.0092 25.9455 18.8392 26.166L17.5392 26.418C17.095 25.6095 16.6508 24.801 16.2392 23.9715C15.015 20.979 13.9967 17.913 14.0833 14.6475C14.1267 11.1405 14.56 7.644 14.625 4.1475C14.625 2.562 14.0075 1.113 13 0ZM2.16667 7.5285C3.56417 9.1245 4.50667 11.109 4.78833 13.293L5.655 20.3595C4.55 20.895 3.705 21.882 3.39083 23.0685H2.16667V7.5285ZM23.8333 7.5285V23.0685H22.6092C22.295 21.882 21.45 20.895 20.345 20.3595L21.2117 13.293C21.4933 11.109 22.4358 9.114 23.8333 7.5285ZM13 21.7245C13.585 23.5725 14.3867 25.326 15.3833 26.9535C14.4408 27.237 13.6175 27.7725 13 28.5075C12.3933 27.783 11.57 27.237 10.6167 26.9535C11.6133 25.326 12.415 23.5725 13 21.7245ZM2.16667 25.1685H3.39083C3.78083 26.6175 4.94 27.762 6.42417 28.161L7.46417 28.392C7.1825 29.3685 7.03083 30.408 7.03083 31.4685H2.16667V25.1685ZM22.6092 25.1685H23.8333V31.4685H18.9583C18.9583 30.408 18.8067 29.3685 18.525 28.392L19.565 28.161C21.0492 27.762 22.2192 26.6175 22.6092 25.1685ZM9.5875 28.875C10.8983 29.0535 11.9167 30.1455 11.9167 31.4685H9.20833C9.20833 30.5655 9.34917 29.694 9.5875 28.875ZM16.4125 28.875C16.6508 29.7045 16.7917 30.5655 16.7917 31.4685H14.0833C14.0833 30.1455 15.1017 29.0535 16.4125 28.875ZM9.4575 33.5685H11.9167V37.989C10.725 36.7815 9.85833 35.259 9.4575 33.5685ZM14.0833 33.5685H16.5425C16.1417 35.259 15.275 36.7815 14.0833 37.989V33.5685Z"
    fill="#FFE358"
    ></path>
</svg>